<svg enable-background="new 0 0 960 960" viewBox="0 0 960 960" xmlns="http://www.w3.org/2000/svg"><path d="m0 0h960v960h-960z" fill="none"/><path d="m287.8 696.8h13.5l10.9-29.1h-13.5z" fill="#33454e"/><path d="m312.2 855.9h-13.5l-10.9-29.1h13.5z" fill="#33454e"/><path d="m167.8 774.6h13.5l10.9-29h-13.5z" fill="#33454e"/><path d="m192.2 933.7h-13.5l-10.9-29h13.5z" fill="#33454e"/><path d="m47.8 696.8h13.5l10.9-29.1h-13.5z" fill="#33454e"/><path d="m72.2 855.9h-13.5l-10.9-29.1h13.5z" fill="#28d223"/><path d="m647.8 774.6h13.5l10.9-29h-13.5z" fill="#33454e"/><path d="m672.2 933.7h-13.5l-10.9-29h13.5z" fill="#33454e"/><path d="m647.8 451.4h13.5l10.9-29.1h-13.5z" fill="#33454e"/><path d="m672.2 610.5h-13.5l-10.9-29.1h13.5z" fill="#33454e"/><path d="m647.8 133.2h13.5l10.9-29.1h-13.5z" fill="#33454e"/><path d="m672.2 292.3h-13.5l-10.9-29.1h13.5z" fill="#33454e"/><path d="m527.8 696.8h13.5l10.9-29.1h-13.5z" fill="#28d223"/><g fill="#33454e"><path d="m552.2 855.9h-13.5l-10.9-29.1h13.5z"/><path d="m527.8 373.5h13.5l10.9-29h-13.5z"/><path d="m552.2 532.6h-13.5l-10.9-29h13.5z"/><path d="m527.8 55.3h13.5l10.9-29h-13.5z"/><path d="m552.2 214.4h-13.5l-10.9-29h13.5z"/><path d="m407.8 774.6h13.5l10.9-29h-13.5z"/><path d="m432.2 933.7h-13.5l-10.9-29h13.5z"/><path d="m407.8 451.4h13.5l10.9-29.1h-13.5z"/><path d="m432.2 610.5h-13.5l-10.9-29.1h13.5z"/><path d="m407.8 133.2h13.5l10.9-29.1h-13.5z"/><path d="m432.2 292.3h-13.5l-10.9-29.1h13.5z"/><path d="m287.8 373.5h13.5l10.9-29h-13.5z"/><path d="m312.2 532.6h-13.5l-10.9-29h13.5z"/><path d="m287.8 55.3h13.5l10.9-29h-13.5z"/><path d="m312.2 214.4h-13.5l-10.9-29h13.5z"/><path d="m167.8 451.4h13.5l10.9-29.1h-13.5z"/><path d="m192.2 610.5h-13.5l-10.9-29.1h13.5z"/><path d="m167.8 133.2h13.5l10.9-29.1h-13.5z"/></g><path d="m192.2 292.3h-13.5l-10.9-29.1h13.5z" fill="#28d223"/><path d="m47.8 373.5h13.5l10.9-29h-13.5z" fill="#33454e"/><path d="m72.2 532.6h-13.5l-10.9-29h13.5z" fill="#33454e"/><path d="m47.8 55.3h13.5l10.9-29h-13.5z" fill="#33454e"/><path d="m72.2 214.4h-13.5l-10.9-29h13.5z" fill="#33454e"/><path d="m887.8 774.6h13.5l10.9-29h-13.5z" fill="#33454e"/><path d="m912.2 933.7h-13.5l-10.9-29h13.5z" fill="#33454e"/><path d="m887.8 451.4h13.5l10.9-29.1h-13.5z" fill="#33454e"/><path d="m912.2 610.5h-13.5l-10.9-29.1h13.5z" fill="#33454e"/><path d="m887.8 133.2h13.5l10.9-29.1h-13.5z" fill="#33454e"/><path d="m912.2 292.3h-13.5l-10.9-29.1h13.5z" fill="#33454e"/><path d="m767.8 696.8h13.5l10.9-29.1h-13.5z" fill="#33454e"/><path d="m792.2 855.9h-13.5l-10.9-29.1h13.5z" fill="#33454e"/><path d="m767.8 373.5h13.5l10.9-29h-13.5z" fill="#33454e"/><path d="m792.2 532.6h-13.5l-10.9-29h13.5z" fill="#33454e"/><path d="m767.8 55.3h13.5l10.9-29h-13.5z" fill="#28d223"/><path d="m792.2 214.4h-13.5l-10.9-29h13.5z" fill="#33454e"/></svg>